<?xml version="1.0" encoding="UTF-8" standalone="no"?>
<svg
   xmlns:dc="http://purl.org/dc/elements/1.1/"
   xmlns:cc="http://creativecommons.org/ns#"
   xmlns:rdf="http://www.w3.org/1999/02/22-rdf-syntax-ns#"
   xmlns:svg="http://www.w3.org/2000/svg"
   xmlns="http://www.w3.org/2000/svg"
   xmlns:sodipodi="http://sodipodi.sourceforge.net/DTD/sodipodi-0.dtd"
   xmlns:inkscape="http://www.inkscape.org/namespaces/inkscape"
   width="20pt"
   height="20pt"
   viewBox="0 0 7.0555558 7.0555555"
   version="1.1"
   id="svg1035"
   inkscape:version="1.0.1 (3bc2e813f5, 2020-09-07)"
   sodipodi:docname="favicon_nocolor.svg">
  <defs
     id="defs1029" />
  <sodipodi:namedview
     id="base"
     pagecolor="#ffffff"
     bordercolor="#666666"
     borderopacity="1.0"
     inkscape:pageopacity="0.0"
     inkscape:pageshadow="2"
     inkscape:zoom="22.4"
     inkscape:cx="19.142949"
     inkscape:cy="14.317271"
     inkscape:document-units="mm"
     inkscape:current-layer="layer1"
     inkscape:document-rotation="0"
     showgrid="false"
     units="pt"
     inkscape:window-width="1920"
     inkscape:window-height="1001"
     inkscape:window-x="-9"
     inkscape:window-y="-9"
     inkscape:window-maximized="1" />
  <metadata
     id="metadata1032">
    <rdf:RDF>
      <cc:Work
         rdf:about="">
        <dc:format>image/svg+xml</dc:format>
        <dc:type
           rdf:resource="http://purl.org/dc/dcmitype/StillImage" />
        <dc:title></dc:title>
      </cc:Work>
    </rdf:RDF>
  </metadata>
  <g
     inkscape:label="Ebene 1"
     inkscape:groupmode="layer"
     id="layer1">
    <path
       id="path843"
       style="fill-opacity:1;paint-order:markers stroke fill"
       d="M 3.5765997,1.2146176 A 2.7285378,2.7285381 0 0 0 2.8996383,1.3004005 0.68508178,2.4450335 0 0 1 3.0004075,2.5747413 0.68508178,2.4450335 0 0 1 2.315178,5.0200701 0.68508178,2.4450335 0 0 1 1.6299485,2.5747413 0.68508178,2.4450335 0 0 1 1.648552,2.0125017 2.7285378,2.7285381 0 0 0 0.85015112,3.8413307 2.746526,3.3961726 0 0 0 1.2568446,5.1792334 3.5889639,2.9393173 0 0 0 3.6086391,5.8980526 3.5889639,2.9393173 0 0 0 5.8291753,5.2676002 2.746526,3.3961726 0 0 0 6.2963303,3.7224748 2.7285378,2.7285381 0 0 0 5.4488368,1.9582415 0.68508183,2.4450335 0 0 1 5.4689907,2.5396013 0.68508183,2.4450335 0 0 1 4.7837611,4.9844132 0.68508183,2.4450335 0 0 1 4.0985316,2.5396013 0.68508183,2.4450335 0 0 1 4.1956834,1.2859311 2.7285378,2.7285381 0 0 0 3.5765997,1.2146176 Z" />
  </g>
</svg>
